<svg width="25" height="25" viewBox="0 0 25 25" fill="none" xmlns="http://www.w3.org/2000/svg">
<path d="M23.7892 12.2482C23.7564 12.1741 22.9623 10.4126 21.197 8.64725C18.8448 6.29507 15.8739 5.05194 12.6039 5.05194C9.33387 5.05194 6.36294 6.29507 4.01075 8.64725C2.24544 10.4126 1.44762 12.1769 1.41856 12.2482C1.37592 12.3441 1.35388 12.4479 1.35388 12.5529C1.35388 12.6578 1.37592 12.7616 1.41856 12.8576C1.45137 12.9316 2.24544 14.6923 4.01075 16.4576C6.36294 18.8088 9.33387 20.0519 12.6039 20.0519C15.8739 20.0519 18.8448 18.8088 21.197 16.4576C22.9623 14.6923 23.7564 12.9316 23.7892 12.8576C23.8318 12.7616 23.8539 12.6578 23.8539 12.5529C23.8539 12.4479 23.8318 12.3441 23.7892 12.2482ZM12.6039 18.5519C9.71825 18.5519 7.19731 17.5029 5.11044 15.4348C4.25417 14.5832 3.52567 13.6122 2.94762 12.5519C3.52552 11.4916 4.25403 10.5205 5.11044 9.66913C7.19731 7.601 9.71825 6.55194 12.6039 6.55194C15.4895 6.55194 18.0104 7.601 20.0973 9.66913C20.9552 10.5203 21.6853 11.4914 22.2648 12.5519C21.5889 13.8138 18.6442 18.5519 12.6039 18.5519ZM12.6039 8.05194C11.7139 8.05194 10.8438 8.31586 10.1038 8.81033C9.36379 9.30479 8.78701 10.0076 8.44641 10.8299C8.10582 11.6521 8.01671 12.5569 8.19034 13.4298C8.36397 14.3028 8.79256 15.1046 9.42189 15.7339C10.0512 16.3633 10.8531 16.7918 11.726 16.9655C12.5989 17.1391 13.5037 17.05 14.3259 16.7094C15.1482 16.3688 15.851 15.792 16.3455 15.052C16.84 14.312 17.1039 13.442 17.1039 12.5519C17.1026 11.3588 16.6281 10.215 15.7845 9.37133C14.9408 8.52769 13.797 8.05318 12.6039 8.05194ZM12.6039 15.5519C12.0105 15.5519 11.4305 15.376 10.9372 15.0463C10.4438 14.7167 10.0593 14.2482 9.83223 13.7C9.60517 13.1518 9.54576 12.5486 9.66152 11.9667C9.77727 11.3847 10.063 10.8502 10.4826 10.4306C10.9021 10.0111 11.4367 9.72534 12.0186 9.60958C12.6005 9.49383 13.2037 9.55324 13.7519 9.7803C14.3001 10.0074 14.7686 10.3919 15.0983 10.8852C15.4279 11.3786 15.6039 11.9586 15.6039 12.5519C15.6039 13.3476 15.2878 14.1107 14.7252 14.6733C14.1626 15.2359 13.3995 15.5519 12.6039 15.5519Z" fill="black"/>
</svg>
