<svg width="25" height="25" viewBox="0 0 25 25" fill="none" xmlns="http://www.w3.org/2000/svg">
<path d="M5.65887 3.79757C5.59301 3.72332 5.51306 3.66289 5.42367 3.61977C5.33428 3.57665 5.23722 3.5517 5.13812 3.54637C5.03901 3.54104 4.93983 3.55543 4.84633 3.58871C4.75283 3.62199 4.66686 3.6735 4.59341 3.74025C4.51996 3.807 4.46049 3.88766 4.41845 3.97756C4.37641 4.06747 4.35262 4.16482 4.34848 4.26398C4.34434 4.36314 4.35992 4.46214 4.39431 4.55524C4.42871 4.64833 4.48125 4.73367 4.54887 4.80632L6.35262 6.79101C2.94762 8.88069 1.48325 12.1019 1.41856 12.2482C1.37592 12.3441 1.35388 12.4479 1.35388 12.5529C1.35388 12.6578 1.37592 12.7617 1.41856 12.8576C1.45137 12.9316 2.24544 14.6923 4.01075 16.4576C6.36294 18.8088 9.33387 20.0519 12.6039 20.0519C14.2845 20.0615 15.948 19.7155 17.4854 19.0366L19.5479 21.3063C19.6138 21.3806 19.6937 21.441 19.7831 21.4841C19.8725 21.5272 19.9696 21.5522 20.0687 21.5575C20.1678 21.5628 20.267 21.5485 20.3605 21.5152C20.454 21.4819 20.5399 21.4304 20.6134 21.3636C20.6868 21.2969 20.7463 21.2162 20.7884 21.1263C20.8304 21.0364 20.8542 20.9391 20.8583 20.8399C20.8625 20.7407 20.8469 20.6417 20.8125 20.5487C20.7781 20.4556 20.7256 20.3702 20.6579 20.2976L5.65887 3.79757ZM10.0961 10.9076L14.0026 15.206C13.4143 15.5155 12.7399 15.6208 12.0853 15.5055C11.4306 15.3901 10.8328 15.0606 10.3858 14.5687C9.93869 14.0768 9.66766 13.4503 9.61522 12.7876C9.56278 12.125 9.73192 11.4637 10.0961 10.9076ZM12.6039 18.5519C9.71825 18.5519 7.19731 17.5029 5.11044 15.4348C4.25386 14.5835 3.52533 13.6124 2.94762 12.5519C3.38731 11.7279 4.79075 9.42163 7.38668 7.92257L9.07418 9.77413C8.42088 10.6109 8.08441 11.6516 8.12425 12.7124C8.16409 13.7732 8.57768 14.7858 9.29191 15.5712C10.0061 16.3565 10.975 16.8641 12.0273 17.0042C13.0796 17.1443 14.1475 16.9078 15.0423 16.3366L16.4232 17.8554C15.2045 18.323 13.9092 18.5592 12.6039 18.5519ZM13.1664 9.60538C12.9709 9.56808 12.7983 9.45468 12.6865 9.29012C12.5747 9.12555 12.5328 8.92331 12.5701 8.72788C12.6074 8.53245 12.7208 8.35984 12.8854 8.24802C13.0499 8.1362 13.2522 8.09433 13.4476 8.13163C14.4035 8.31694 15.2739 8.8063 15.9289 9.52671C16.5839 10.2471 16.9885 11.16 17.0823 12.1291C17.1008 12.3272 17.0399 12.5245 16.913 12.6776C16.786 12.8307 16.6035 12.9272 16.4054 12.9457C16.382 12.9471 16.3585 12.9471 16.3351 12.9457C16.1477 12.9465 15.9667 12.8771 15.8279 12.7511C15.6891 12.6251 15.6025 12.4517 15.5851 12.2651C15.522 11.6204 15.2525 11.0134 14.8167 10.5342C14.3809 10.055 13.8021 9.72926 13.1664 9.60538ZM23.7864 12.8576C23.747 12.9457 22.7973 15.0485 20.6589 16.9638C20.5858 17.0313 20.5 17.0837 20.4065 17.1177C20.3131 17.1518 20.2137 17.1669 20.1144 17.1622C20.015 17.1575 19.9175 17.133 19.8277 17.0903C19.7378 17.0476 19.6574 16.9874 19.591 16.9132C19.5247 16.8391 19.4737 16.7525 19.4411 16.6585C19.4086 16.5645 19.395 16.4649 19.4013 16.3656C19.4076 16.2663 19.4336 16.1693 19.4778 16.0801C19.5219 15.991 19.5834 15.9115 19.6586 15.8463C20.7077 14.9038 21.589 13.7898 22.2648 12.5519C21.6858 11.4905 20.9557 10.5188 20.0973 9.66726C18.0104 7.60101 15.4895 6.55194 12.6039 6.55194C11.9959 6.5512 11.3888 6.60043 10.7889 6.69913C10.6913 6.71638 10.5913 6.71414 10.4946 6.69252C10.3979 6.6709 10.3065 6.63033 10.2255 6.57317C10.1446 6.51601 10.0758 6.44338 10.0231 6.35948C9.97044 6.27557 9.93489 6.18206 9.91855 6.08435C9.9022 5.98663 9.90537 5.88664 9.92789 5.79015C9.9504 5.69367 9.99181 5.6026 10.0497 5.52221C10.1076 5.44182 10.1809 5.3737 10.2653 5.32179C10.3497 5.26988 10.4435 5.2352 10.5414 5.21976C11.2231 5.10719 11.9129 5.05107 12.6039 5.05194C15.8739 5.05194 18.8448 6.29507 21.197 8.64726C22.9623 10.4126 23.7564 12.1741 23.7892 12.2482C23.8318 12.3441 23.8539 12.4479 23.8539 12.5529C23.8539 12.6578 23.8318 12.7617 23.7892 12.8576H23.7864Z" fill="black"/>
</svg>
